<?xml version="1.0" encoding="iso-8859-1"?>
<!-- Generator: Adobe Illustrator 19.0.0, SVG Export Plug-In . SVG Version: 6.00 Build 0)  -->
<svg version="1.1" id="Layer_1" xmlns="http://www.w3.org/2000/svg" xmlns:xlink="http://www.w3.org/1999/xlink" x="0px" y="0px"
	 viewBox="0 0 512.001 512.001" style="enable-background:new 0 0 512.001 512.001;" xml:space="preserve">
<g>
	<polygon style="fill:#CEE8FA;" points="211.979,388.966 256,235.796 300.021,388.966 	"/>
	<rect x="96.737" y="454.366" style="fill:#CEE8FA;" width="318.532" height="43.763"/>
</g>
<path style="fill:#2D527C;" d="M415.264,440.499H156.301c4.75-10.023,10.309-22.45,16.281-37.144h199.11
	c7.66,0,13.869-6.211,13.869-13.869c0-7.659-6.209-13.869-13.869-13.869h-13.367c-2.491-6.568-4.939-13.263-7.306-20.008
	c-11.578-32.988-24.676-73.004-35.767-122.84h16.336c7.66,0,13.869-6.211,13.869-13.869s-6.209-13.869-13.869-13.869H230.706
	c6.502-34.781,11.822-73.319,15.202-116.5h20.188c1.236,15.768,2.764,31.38,4.564,46.57c0.901,7.607,7.797,13.04,15.404,12.142
	c7.606-0.9,13.043-7.797,12.141-15.403c-2.236-18.874-4.046-38.427-5.38-58.114c-0.492-7.28-6.542-12.932-13.837-12.932h-37.459
	c-0.039-0.433-0.092-0.863-0.092-1.301c0-8.03,6.532-14.563,14.563-14.563c7.66,0,13.869-6.211,13.869-13.869
	c0-0.097-0.012-0.191-0.014-0.288c0.001-0.097,0.014-0.191,0.014-0.288V13.869C269.869,6.211,263.66,0,256,0
	s-13.869,6.211-13.869,13.869v5.67c-16.532,5.756-28.432,21.486-28.432,39.954c0,7.023,1.743,13.893,5.054,20.038
	c-3.413,47.011-9.172,88.475-16.299,125.501h-22.041c-7.66,0-13.869,6.211-13.869,13.869s6.209,13.869,13.869,13.869h16.281
	c-10.658,47.782-23.407,87.78-35.714,122.841c-2.46,7.012-4.903,13.681-7.302,20.006h-13.37c-7.66,0-13.869,6.211-13.869,13.869
	s6.209,13.869,13.869,13.869h2.245c-6.675,15.744-12.604,28.193-17.121,37.144H96.737c-7.66,0-13.869,6.211-13.869,13.869v43.763
	c0,7.659,6.209,13.869,13.869,13.869h318.527c7.66,0,13.869-6.211,13.869-13.869V454.37
	C429.134,446.71,422.923,440.499,415.264,440.499z M230.396,375.097L256,286.006l25.604,89.091H230.396z M324.845,364.795
	c1.272,3.625,2.573,7.231,3.886,10.822h-18.114l-41.055-142.848h17.28C298.512,286.827,312.525,329.693,324.845,364.795z
	 M187.154,364.796c13.137-37.424,26.765-80.331,37.957-132.027h17.329l-41.055,142.848h-18.11
	C184.563,372.097,185.856,368.498,187.154,364.796z M401.395,484.262H110.606v-16.024h290.789V484.262z"/>
<g>
</g>
<g>
</g>
<g>
</g>
<g>
</g>
<g>
</g>
<g>
</g>
<g>
</g>
<g>
</g>
<g>
</g>
<g>
</g>
<g>
</g>
<g>
</g>
<g>
</g>
<g>
</g>
<g>
</g>
</svg>
