<?xml version="1.0" encoding="iso-8859-1"?>
<!-- Generator: Adobe Illustrator 19.0.0, SVG Export Plug-In . SVG Version: 6.00 Build 0)  -->
<svg version="1.1" id="Layer_1" xmlns="http://www.w3.org/2000/svg" xmlns:xlink="http://www.w3.org/1999/xlink" x="0px" y="0px"
	 viewBox="0 0 512 512" style="enable-background:new 0 0 512 512;" xml:space="preserve">
<g>
	<path style="fill:#FFE49C;" d="M317.248,34.417l-47.191-21.509c-4.483-2.041-9.522-2.202-14.061-0.596v78.421
		c2.022,0.716,4.141,1.084,6.269,1.084c2.648,0,5.307-0.56,7.792-1.692l47.193-21.511c6.698-3.054,10.997-9.736,10.997-17.099
		C328.245,44.154,323.947,37.471,317.248,34.417z"/>
	<path style="fill:#FFE49C;" d="M252.098,14.201c-5.375,3.459-8.626,9.411-8.626,15.803v43.021c0,6.391,3.249,12.346,8.626,15.804
		c1.235,0.794,2.543,1.424,3.896,1.902v-78.42C254.644,12.79,253.331,13.408,252.098,14.201z"/>
</g>
<path style="fill:#80D0E1;" d="M256,0c-0.001,0-0.003,0-0.004,0c-12.073,0.003-21.859,9.79-21.859,21.863v115.877
	c0,12.073,9.786,21.86,21.859,21.863c0.001,0,0.003,0,0.004,0c12.074,0,21.863-9.789,21.863-21.863V21.863
	C277.863,9.789,268.074,0,256,0z"/>
<path style="fill:#48AEE2;" d="M256,0c-0.001,0-0.003,0-0.004,0v159.604c0.001,0,0.003,0,0.004,0
	c12.074,0,21.863-9.789,21.863-21.863V21.863C277.863,9.789,268.074,0,256,0z"/>
<polygon style="fill:#80D0E1;" points="255.996,228.083 35.413,228.083 35.413,462.265 255.996,462.265 476.586,462.265 
	476.586,228.083 "/>
<path style="fill:#48AEE2;" d="M434.974,137.741H255.996H77.026c-22.981,0-41.612,18.631-41.612,41.612v61.105h220.581h220.592
	v-61.105C476.586,156.371,457.955,137.741,434.974,137.741z"/>
<path style="fill:#3494C7;" d="M476.586,179.353c0-22.981-18.631-41.612-41.612-41.612H255.996v102.719h220.592v-61.107H476.586z"/>
<g>
	<path style="fill:#48AEE2;" d="M500.745,450.905H255.996H11.255c-4.024,0-7.288,3.263-7.288,7.288v46.519
		c0,4.026,3.263,7.288,7.288,7.288h244.74h244.749c4.024,0,7.288-3.262,7.288-7.288v-46.52
		C508.033,454.168,504.769,450.905,500.745,450.905z"/>
	<rect x="255.991" y="240.454" style="fill:#48AEE2;" width="220.587" height="210.443"/>
</g>
<rect x="128.965" y="328.709" style="fill:#FFE49C;" width="127.026" height="122.202"/>
<rect x="255.991" y="328.709" style="fill:#FFC72D;" width="127.041" height="122.202"/>
<path style="fill:#3494C7;" d="M500.745,450.905H255.996V512h244.749c4.024,0,7.288-3.262,7.288-7.288v-46.52
	C508.033,454.168,504.769,450.905,500.745,450.905z"/>
<g>
</g>
<g>
</g>
<g>
</g>
<g>
</g>
<g>
</g>
<g>
</g>
<g>
</g>
<g>
</g>
<g>
</g>
<g>
</g>
<g>
</g>
<g>
</g>
<g>
</g>
<g>
</g>
<g>
</g>
</svg>
